<?xml version="1.0" encoding="UTF-8" standalone="no"?>
<!-- Created with Inkscape (http://www.inkscape.org/) -->

<svg
   xmlns:dc="http://purl.org/dc/elements/1.1/"
   xmlns:cc="http://creativecommons.org/ns#"
   xmlns:rdf="http://www.w3.org/1999/02/22-rdf-syntax-ns#"
   xmlns:svg="http://www.w3.org/2000/svg"
   xmlns="http://www.w3.org/2000/svg"
   xmlns:sodipodi="http://sodipodi.sourceforge.net/DTD/sodipodi-0.dtd"
   xmlns:inkscape="http://www.inkscape.org/namespaces/inkscape"
   id="svg2"
   version="1.1"
   inkscape:version="0.47 r22583"
   width="765"
   height="990"
   xml:space="preserve"
   sodipodi:docname="title-page.svg"><metadata
     id="metadata8"><rdf:RDF><cc:Work
         rdf:about=""><dc:format>image/svg+xml</dc:format><dc:type
           rdf:resource="http://purl.org/dc/dcmitype/StillImage" /><dc:title></dc:title></cc:Work></rdf:RDF></metadata><defs
     id="defs6"><inkscape:perspective
       sodipodi:type="inkscape:persp3d"
       inkscape:vp_x="0 : 0.5 : 1"
       inkscape:vp_y="0 : 1000 : 0"
       inkscape:vp_z="1 : 0.5 : 1"
       inkscape:persp3d-origin="0.5 : 0.33333333 : 1"
       id="perspective10" /><clipPath
       clipPathUnits="userSpaceOnUse"
       id="clipPath62"><path
         d="m 199.161,564.327 412.839,0 0,123.656 -412.839,0 0,-123.656 z"
         id="path64" /></clipPath></defs><sodipodi:namedview
     pagecolor="#ffffff"
     bordercolor="#666666"
     borderopacity="1"
     objecttolerance="10"
     gridtolerance="10"
     guidetolerance="10"
     inkscape:pageopacity="0"
     inkscape:pageshadow="2"
     inkscape:window-width="1282"
     inkscape:window-height="818"
     id="namedview4"
     showgrid="false"
     inkscape:zoom="1"
     inkscape:cx="382.5"
     inkscape:cy="676"
     inkscape:window-x="0"
     inkscape:window-y="25"
     inkscape:window-maximized="0"
     inkscape:current-layer="g12" /><g
     id="g12"
     inkscape:groupmode="layer"
     inkscape:label="title-page"
     transform="matrix(1.25,0,0,-1.25,0,990)"><g
       id="g48"
       transform="translate(129.165,399.2241)"><path
         d="M 0,0 414.458,0"
         style="fill:none;stroke:#231f20;stroke-opacity:1;stroke-width:4;stroke-linecap:butt;stroke-linejoin:miter;stroke-miterlimit:4;stroke-dasharray:none"
         id="path50" /></g><path
       d="m 199.161,564.327 412.839,0 0,123.656 -412.839,0 0,-123.656 z"
       style="fill:#ffffff;fill-opacity:1;fill-rule:nonzero;stroke:none"
       id="path52" /><g
       id="g54"
       transform="translate(377.9902,657.541)"><path
         d="m 0,0 0,-60.086 -3.823,0 -45.678,52.516 0,-52.516 -4.646,0 0,60.086 3.935,0 L -4.645,-52.515 -4.645,0 0,0 z"
         style="fill:#131210;fill-opacity:1;fill-rule:nonzero;stroke:none"
         id="path56" /></g><g
       id="g58"><g
         id="g60"
         clip-path="url(#clipPath62)"><g
           id="g66"
           transform="translate(393.4297,622.0996)"><path
             d="M 0,0 25.634,0 C 24.144,7.715 19.972,11.57 13.118,11.57 9.879,11.57 7.074,10.561 4.709,8.539 2.344,6.517 0.774,3.67 0,0 m 30.622,-3.397 -31.181,0 c -0.087,-0.687 -0.128,-1.375 -0.128,-2.063 0,-4.417 1.576,-8.158 4.731,-11.228 3.153,-3.066 6.882,-4.599 11.183,-4.599 5.016,0 9.919,1.963 14.708,5.89 l 0,-4.774 c -4.532,-3.498 -9.604,-5.247 -15.226,-5.247 -5.705,0 -10.423,1.979 -14.149,5.936 -3.728,3.958 -5.591,8.988 -5.591,15.097 0,5.79 1.72,10.586 5.16,14.385 3.441,3.799 7.769,5.698 12.989,5.698 4.904,0 9.047,-1.712 12.43,-5.137 3.383,-3.428 5.074,-8.081 5.074,-13.958"
             style="fill:#131210;fill-opacity:1;fill-rule:nonzero;stroke:none"
             id="path68" /></g><g
           id="g70"
           transform="translate(448.5771,614.8301)"><path
             d="m 0,0 -15.557,-17.375 -5.441,0 18.1,20.261 -18.1,19.308 5.441,0 15.553,-16.421 15.498,16.421 5.442,0 -18.159,-19.308 18.159,-20.261 -5.442,0 L 0,0 z"
             style="fill:#131210;fill-opacity:1;fill-rule:nonzero;stroke:none"
             id="path72" /></g><g
           id="g74"
           transform="translate(502.6299,597.4551)"><path
             d="m 0,0 0,6.54 -0.172,0 C -2.008,3.899 -3.895,2.022 -5.828,0.905 c -1.934,-1.119 -4.395,-1.678 -7.375,-1.678 -4.246,0 -7.756,1.377 -10.539,4.13 -2.781,2.751 -4.17,6.65 -4.17,11.698 l 0,24.513 4.215,0 0,-24.427 c 0,-3.67 1.002,-6.552 3.008,-8.646 2.007,-2.092 4.617,-3.138 7.828,-3.138 2.756,0 5.099,0.63 7.033,1.892 1.933,1.262 3.879,3.439 5.828,6.539 l 0,27.78 4.213,0 L 4.213,0 0,0 z"
             style="fill:#131210;fill-opacity:1;fill-rule:nonzero;stroke:none"
             id="path76" /></g><g
           id="g78"
           transform="translate(539.6592,634.4453)"><path
             d="m 0,0 0,-4.56 c -4.014,2.694 -7.625,4.042 -10.838,4.042 -2.381,0 -4.385,-0.643 -6.021,-1.929 -1.633,-1.286 -2.45,-2.872 -2.45,-4.761 0,-1.343 0.496,-2.581 1.489,-3.709 0.996,-1.129 3.732,-2.56 8.216,-4.293 4.481,-1.732 7.413,-3.528 8.788,-5.394 1.377,-1.862 2.066,-3.941 2.066,-6.234 0,-3.07 -1.25,-5.656 -3.742,-7.763 -2.496,-2.108 -5.578,-3.163 -9.248,-3.163 -3.987,0 -7.944,1.205 -11.869,3.615 l 0,4.128 c 4.671,-2.409 8.816,-3.612 12.427,-3.612 2.436,0 4.438,0.643 6,1.932 1.563,1.291 2.344,2.938 2.344,4.943 0,1.376 -0.508,2.646 -1.527,3.806 -1.02,1.16 -3.772,2.631 -8.26,4.41 -4.486,1.78 -7.395,3.537 -8.727,5.273 -1.334,1.734 -2,3.662 -2,5.785 0,3.01 1.239,5.57 3.719,7.677 2.481,2.108 5.498,3.16 9.053,3.16 C -7.338,3.353 -3.811,2.236 0,0"
             style="fill:#131210;fill-opacity:1;fill-rule:nonzero;stroke:none"
             id="path80" /></g><path
           d="m 264.19,651.998 -25.08,0 0,5.459 25.08,0 0,-5.459 z"
           style="fill:#3a63a1;fill-opacity:1;fill-rule:nonzero;stroke:none"
           id="path82" /><path
           d="m 298.604,651.998 -24.958,0 0,5.459 24.958,0 0,-5.459 z"
           style="fill:#3a63a1;fill-opacity:1;fill-rule:nonzero;stroke:none"
           id="path84" /><path
           d="m 264.19,630.316 -25.08,0 0,5.46 25.08,0 0,-5.46 z"
           style="fill:#3a63a1;fill-opacity:1;fill-rule:nonzero;stroke:none"
           id="path86" /><path
           d="m 264.19,619.284 -25.08,0 0,5.46 25.08,0 0,-5.46 z"
           style="fill:#131210;fill-opacity:1;fill-rule:nonzero;stroke:none"
           id="path88" /><path
           d="m 264.19,608.433 -25.08,0 0,5.461 25.08,0 0,-5.461 z"
           style="fill:#131210;fill-opacity:1;fill-rule:nonzero;stroke:none"
           id="path90" /><path
           d="m 264.281,597.348 -25.081,0 0,5.459 25.081,0 0,-5.459 z"
           style="fill:#131210;fill-opacity:1;fill-rule:nonzero;stroke:none"
           id="path92" /><path
           d="m 298.509,640.909 -59.217,0 0,5.459 59.217,0 0,-5.459 z"
           style="fill:#3a63a1;fill-opacity:1;fill-rule:nonzero;stroke:none"
           id="path94" /><path
           d="m 298.544,630.316 -25.201,0 0,5.46 25.201,0 0,-5.46 z"
           style="fill:#3a63a1;fill-opacity:1;fill-rule:nonzero;stroke:none"
           id="path96" /><path
           d="m 298.544,619.284 -25.201,0 0,5.46 25.201,0 0,-5.46 z"
           style="fill:#131210;fill-opacity:1;fill-rule:nonzero;stroke:none"
           id="path98" /><path
           d="m 298.544,608.433 -25.201,0 0,5.461 25.201,0 0,-5.461 z"
           style="fill:#131210;fill-opacity:1;fill-rule:nonzero;stroke:none"
           id="path100" /><path
           d="m 298.513,597.348 -25.08,0 0,5.459 25.08,0 0,-5.459 z"
           style="fill:#131210;fill-opacity:1;fill-rule:nonzero;stroke:none"
           id="path102" /></g></g><text
       xml:space="preserve"
       style="font-size:32px;font-style:normal;font-weight:normal;fill:#000000;fill-opacity:1;stroke:none;font-family:Bitstream Vera Sans"
       x="549.59998"
       y="-490.39996"
       id="text2929"
       transform="scale(1,-1)"><tspan
         sodipodi:role="line"
         id="tspan2931"
         x="549.59998"
         y="-490.39996"
         style="font-size:37.59999847px;font-style:normal;font-variant:normal;font-weight:bold;font-stretch:normal;text-align:end;text-anchor:end;font-family:FreeSans;-inkscape-font-specification:FreeSans Bold">Repository Management</tspan><tspan
         sodipodi:role="line"
         x="549.59998"
         y="-443.39996"
         id="tspan2933"
         style="font-size:37.59999847px;font-style:normal;font-variant:normal;font-weight:bold;font-stretch:normal;text-align:end;text-anchor:end;font-family:FreeSans;-inkscape-font-specification:FreeSans Bold">with Nexus</tspan></text>
<text
       xml:space="preserve"
       style="font-size:32px;font-style:normal;font-weight:normal;fill:#000000;fill-opacity:1;stroke:none;font-family:Bitstream Vera Sans"
       x="545.59998"
       y="-340"
       id="text2935"
       transform="scale(1,-1)"><tspan
         sodipodi:role="line"
         id="tspan2937"
         x="545.59998"
         y="-340"
         style="font-size:14.39999962px;font-style:normal;font-variant:normal;font-weight:normal;font-stretch:normal;text-align:end;text-anchor:end;font-family:FreeSans;-inkscape-font-specification:FreeSans">Tim O'Brien</tspan><tspan
         sodipodi:role="line"
         x="545.59998"
         y="-322"
         id="tspan2939"
         style="font-size:14.39999962px;font-style:normal;font-variant:normal;font-weight:normal;font-stretch:normal;text-align:end;text-anchor:end;font-family:FreeSans;-inkscape-font-specification:FreeSans">Damian Bradicich</tspan><tspan
         sodipodi:role="line"
         x="545.59998"
         y="-304"
         id="tspan2941"
         style="font-size:14.39999962px;font-style:normal;font-variant:normal;font-weight:normal;font-stretch:normal;text-align:end;text-anchor:end;font-family:FreeSans;-inkscape-font-specification:FreeSans">John Casey</tspan><tspan
         sodipodi:role="line"
         x="545.59998"
         y="-286"
         id="tspan2943"
         style="font-size:14.39999962px;font-style:normal;font-variant:normal;font-weight:normal;font-stretch:normal;text-align:end;text-anchor:end;font-family:FreeSans;-inkscape-font-specification:FreeSans">Tamás Cservenák</tspan><tspan
         sodipodi:role="line"
         x="545.59998"
         y="-268"
         id="tspan2945"
         style="font-size:14.39999962px;font-style:normal;font-variant:normal;font-weight:normal;font-stretch:normal;text-align:end;text-anchor:end;font-family:FreeSans;-inkscape-font-specification:FreeSans">Brian Demers</tspan><tspan
         sodipodi:role="line"
         x="545.59998"
         y="-250"
         id="tspan2947"
         style="font-size:14.39999962px;font-style:normal;font-variant:normal;font-weight:normal;font-stretch:normal;text-align:end;text-anchor:end;font-family:FreeSans;-inkscape-font-specification:FreeSans">Brian Fox</tspan><tspan
         sodipodi:role="line"
         x="545.59998"
         y="-232"
         id="tspan2949"
         style="font-size:14.39999962px;font-style:normal;font-variant:normal;font-weight:normal;font-stretch:normal;text-align:end;text-anchor:end;font-family:FreeSans;-inkscape-font-specification:FreeSans">Marvin Froeder</tspan><tspan
         sodipodi:role="line"
         x="545.59998"
         y="-214"
         id="tspan2957"
         style="font-size:14.39999962px;font-style:normal;font-variant:normal;font-weight:normal;font-stretch:normal;text-align:end;text-anchor:end;font-family:FreeSans;-inkscape-font-specification:FreeSans">Anders Hammar</tspan><tspan
         sodipodi:role="line"
         x="545.59998"
         y="-196"
         id="tspan2951"
         style="font-size:14.39999962px;font-style:normal;font-variant:normal;font-weight:normal;font-stretch:normal;text-align:end;text-anchor:end;font-family:FreeSans;-inkscape-font-specification:FreeSans">Rich Seddon</tspan><tspan
         sodipodi:role="line"
         x="545.59998"
         y="-178"
         id="tspan2953"
         style="font-size:14.39999962px;font-style:normal;font-variant:normal;font-weight:normal;font-stretch:normal;text-align:end;text-anchor:end;font-family:FreeSans;-inkscape-font-specification:FreeSans">Juven Xu</tspan><tspan
         sodipodi:role="line"
         x="545.59998"
         y="-160"
         id="tspan2955"
         style="font-size:14.39999962px;font-style:normal;font-variant:normal;font-weight:normal;font-stretch:normal;text-align:end;text-anchor:end;font-family:FreeSans;-inkscape-font-specification:FreeSans">Jason van Zyl</tspan></text>
<text
       xml:space="preserve"
       style="font-size:32px;font-style:normal;font-weight:normal;fill:#000000;fill-opacity:1;stroke:none;font-family:Bitstream Vera Sans"
       x="547.20001"
       y="-107.99998"
       id="text2959"
       transform="scale(1,-1)"><tspan
         sodipodi:role="line"
         id="tspan2961"
         x="547.20001"
         y="-107.99998"
         style="font-size:19.20000076px;font-style:normal;font-variant:normal;font-weight:bold;font-stretch:normal;text-align:end;text-anchor:end;font-family:FreeSans;-inkscape-font-specification:FreeSans Bold">A Sonatype Open Book</tspan><tspan
         sodipodi:role="line"
         x="547.20001"
         y="-83.999977"
         id="tspan2963"
         style="font-size:19.20000076px;font-style:normal;font-variant:normal;font-weight:bold;font-stretch:normal;text-align:end;text-anchor:end;font-family:FreeSans;-inkscape-font-specification:FreeSans Bold">Silver Spring, MD</tspan></text>
</g></svg>