<?xml version="1.0" encoding="UTF-8" standalone="no"?>
<!-- Created with Inkscape (http://www.inkscape.org/) -->

<svg
   xmlns:dc="http://purl.org/dc/elements/1.1/"
   xmlns:cc="http://creativecommons.org/ns#"
   xmlns:rdf="http://www.w3.org/1999/02/22-rdf-syntax-ns#"
   xmlns:svg="http://www.w3.org/2000/svg"
   xmlns="http://www.w3.org/2000/svg"
   xmlns:sodipodi="http://sodipodi.sourceforge.net/DTD/sodipodi-0.dtd"
   xmlns:inkscape="http://www.inkscape.org/namespaces/inkscape"
   id="svg2"
   version="1.1"
   inkscape:version="0.47 r22583"
   width="765"
   height="990"
   xml:space="preserve"
   sodipodi:docname="nexus-book-cover.pdf"><metadata
     id="metadata8"><rdf:RDF><cc:Work
         rdf:about=""><dc:format>image/svg+xml</dc:format><dc:type
           rdf:resource="http://purl.org/dc/dcmitype/StillImage" /><dc:title></dc:title></cc:Work></rdf:RDF></metadata><defs
     id="defs6"><inkscape:perspective
       sodipodi:type="inkscape:persp3d"
       inkscape:vp_x="0 : 0.5 : 1"
       inkscape:vp_y="0 : 1000 : 0"
       inkscape:vp_z="1 : 0.5 : 1"
       inkscape:persp3d-origin="0.5 : 0.33333333 : 1"
       id="perspective10" /><clipPath
       clipPathUnits="userSpaceOnUse"
       id="clipPath24"><path
         d="M 0,0 612,0 612,792 0,792 0,0 z"
         id="path26" /></clipPath><clipPath
       clipPathUnits="userSpaceOnUse"
       id="clipPath80"><path
         d="M 0,0 612,0 612,792 0,792 0,0 z"
         id="path82" /></clipPath></defs><sodipodi:namedview
     pagecolor="#ffffff"
     bordercolor="#666666"
     borderopacity="1"
     objecttolerance="10"
     gridtolerance="10"
     guidetolerance="10"
     inkscape:pageopacity="0"
     inkscape:pageshadow="2"
     inkscape:window-width="1313"
     inkscape:window-height="743"
     id="namedview4"
     showgrid="false"
     inkscape:zoom="1.4142136"
     inkscape:cx="416.11189"
     inkscape:cy="786.9784"
     inkscape:window-x="0"
     inkscape:window-y="25"
     inkscape:window-maximized="0"
     inkscape:current-layer="g12" /><g
     id="g12"
     inkscape:groupmode="layer"
     inkscape:label="nexus-book-cover"
     transform="matrix(1.25,0,0,-1.25,0,990)"><path
       d="m 31.032,496.511 580.968,0 0,179.998 -580.968,0 0,-179.998 z"
       style="fill:#ffffff;fill-opacity:1;fill-rule:nonzero;stroke:none"
       id="path14" /><g
       id="g16"
       transform="translate(291.3477,632.1978)"><path
         d="m 0,0 0,-87.465 -5.566,0 -66.495,76.446 0,-76.446 -6.759,0 0,87.465 5.726,0 L -6.762,-76.443 -6.762,0 0,0 z"
         style="fill:#131210;fill-opacity:1;fill-rule:nonzero;stroke:none"
         id="path18" /></g><g
       id="g20"><g
         id="g22"
         clip-path="url(#clipPath24)"><g
           id="g28"
           transform="translate(313.8193,580.6094)"><path
             d="M 0,0 37.316,0 C 35.145,11.227 29.074,16.841 19.1,16.841 14.383,16.841 10.299,15.372 6.857,12.428 3.414,9.485 1.129,5.34 0,0 m 44.576,-4.948 -45.389,0 c -0.125,-0.997 -0.183,-2.001 -0.183,-3.001 0,-6.43 2.291,-11.876 6.883,-16.345 4.593,-4.463 10.017,-6.695 16.281,-6.695 7.299,0 14.436,2.857 21.406,8.574 l 0,-6.95 c -6.595,-5.09 -13.98,-7.637 -22.16,-7.637 -8.307,0 -15.174,2.88 -20.6,8.641 -5.425,5.761 -8.134,13.082 -8.134,21.977 0,8.427 2.502,15.411 7.509,20.939 5.01,5.529 11.311,8.296 18.911,8.296 7.134,0 13.164,-2.494 18.089,-7.479 4.924,-4.99 7.387,-11.763 7.387,-20.32"
             style="fill:#131210;fill-opacity:1;fill-rule:nonzero;stroke:none"
             id="path30" /></g><g
           id="g32"
           transform="translate(394.0967,570.0264)"><path
             d="m 0,0 -22.648,-25.293 -7.916,0 26.343,29.494 -26.343,28.106 7.916,0 22.644,-23.903 22.559,23.903 7.918,0 -26.432,-28.106 26.432,-29.494 -7.918,0 L 0,0 z"
             style="fill:#131210;fill-opacity:1;fill-rule:nonzero;stroke:none"
             id="path34" /></g><g
           id="g36"
           transform="translate(472.7783,544.7329)"><path
             d="m 0,0 0,9.52 -0.252,0 c -2.672,-3.844 -5.416,-6.575 -8.23,-8.204 -2.817,-1.628 -6.399,-2.441 -10.739,-2.441 -6.177,0 -11.289,2.006 -15.34,6.013 -4.048,4.004 -6.07,9.68 -6.07,17.027 l 0,35.685 6.135,0 0,-35.559 c 0,-5.344 1.459,-9.539 4.381,-12.585 2.922,-3.048 6.72,-4.568 11.394,-4.568 4.01,0 7.422,0.918 10.239,2.752 2.814,1.838 5.646,5.006 8.482,9.52 L 0,57.6 6.133,57.6 6.133,0 0,0 z"
             style="fill:#131210;fill-opacity:1;fill-rule:nonzero;stroke:none"
             id="path38" /></g><g
           id="g40"
           transform="translate(526.6807,598.5796)"><path
             d="m 0,0 0,-6.637 c -5.844,3.92 -11.102,5.885 -15.777,5.885 -3.465,0 -6.383,-0.939 -8.764,-2.811 -2.381,-1.872 -3.566,-4.181 -3.566,-6.929 0,-1.956 0.724,-3.758 2.166,-5.4 1.451,-1.643 5.435,-3.727 11.962,-6.249 6.52,-2.521 10.79,-5.135 12.79,-7.852 2.005,-2.711 3.005,-5.736 3.005,-9.076 0,-4.469 -1.816,-8.233 -5.445,-11.3 -3.635,-3.068 -8.121,-4.603 -13.459,-4.603 -5.805,0 -11.564,1.753 -17.281,5.26 l 0,6.009 c 6.805,-3.505 12.836,-5.256 18.092,-5.256 3.545,0 6.461,0.936 8.732,2.811 2.277,1.88 3.414,4.279 3.414,7.198 0,2 -0.74,3.849 -2.223,5.539 -1.486,1.69 -5.49,3.83 -12.025,6.419 -6.529,2.592 -10.764,5.149 -12.703,7.678 -1.943,2.521 -2.912,5.329 -2.912,8.418 0,4.382 1.805,8.109 5.416,11.177 3.609,3.068 8.002,4.6 13.178,4.6 4.716,0 9.851,-1.628 15.4,-4.881"
             style="fill:#131210;fill-opacity:1;fill-rule:nonzero;stroke:none"
             id="path42" /></g><path
           d="m 125.691,624.13 -36.508,0 0,7.946 36.508,0 0,-7.946 z"
           style="fill:#3a63a1;fill-opacity:1;fill-rule:nonzero;stroke:none"
           id="path44" /><path
           d="m 175.787,624.13 -36.328,0 0,7.946 36.328,0 0,-7.946 z"
           style="fill:#3a63a1;fill-opacity:1;fill-rule:nonzero;stroke:none"
           id="path46" /><path
           d="m 125.691,592.568 -36.508,0 0,7.948 36.508,0 0,-7.948 z"
           style="fill:#3a63a1;fill-opacity:1;fill-rule:nonzero;stroke:none"
           id="path48" /><path
           d="m 125.691,576.51 -36.508,0 0,7.948 36.508,0 0,-7.948 z"
           style="fill:#131210;fill-opacity:1;fill-rule:nonzero;stroke:none"
           id="path50" /><path
           d="m 125.691,560.712 -36.508,0 0,7.951 36.508,0 0,-7.951 z"
           style="fill:#131210;fill-opacity:1;fill-rule:nonzero;stroke:none"
           id="path52" /><path
           d="m 125.824,544.576 -36.508,0 0,7.946 36.508,0 0,-7.946 z"
           style="fill:#131210;fill-opacity:1;fill-rule:nonzero;stroke:none"
           id="path54" /><path
           d="m 175.648,607.989 -86.199,0 0,7.944 86.199,0 0,-7.944 z"
           style="fill:#3a63a1;fill-opacity:1;fill-rule:nonzero;stroke:none"
           id="path56" /><path
           d="m 175.699,592.568 -36.686,0 0,7.948 36.686,0 0,-7.948 z"
           style="fill:#3a63a1;fill-opacity:1;fill-rule:nonzero;stroke:none"
           id="path58" /><path
           d="m 175.699,576.51 -36.686,0 0,7.948 36.686,0 0,-7.948 z"
           style="fill:#131210;fill-opacity:1;fill-rule:nonzero;stroke:none"
           id="path60" /><path
           d="m 175.699,560.712 -36.686,0 0,7.951 36.686,0 0,-7.951 z"
           style="fill:#131210;fill-opacity:1;fill-rule:nonzero;stroke:none"
           id="path62" /><path
           d="m 175.654,544.576 -36.508,0 0,7.946 36.508,0 0,-7.946 z"
           style="fill:#131210;fill-opacity:1;fill-rule:nonzero;stroke:none"
           id="path64" /><path
           d="m 614.594,-6.57 -617.205,0 0,293.141 617.205,0 0,-293.141 z"
           style="fill:#100f0d;fill-opacity:1;fill-rule:nonzero;stroke:none"
           id="path66" /></g></g><g
       id="g76"><g
         id="g78"
         clip-path="url(#clipPath80)"><g
           id="g84"
           transform="translate(62.126,85.3926)"><path
             d="m 0,0 82.579,-0.156 c 1.152,0 2.184,0.18 2.184,-2.435 l -0.101,-28.749 -86.745,0 0,28.856 C -2.083,-1.195 -1.966,0 0,0"
             style="fill:#a7b1a6;fill-opacity:1;fill-rule:nonzero;stroke:none"
             id="path86" /></g><g
           id="g88"
           transform="translate(61.2793,84.9512)"><path
             d="m 0,0 84.147,0 c 0.496,0 0.896,-0.425 0.896,-0.948 l 0,-20.957 -60.141,0 c -2.207,-4.213 -6.453,-7.075 -11.327,-7.075 -4.875,0 -9.121,2.857 -11.323,7.075 l -3.148,0 0,20.957 C -0.896,-0.425 -0.494,0 0,0 M 84.147,0.782 0,0.782 c -0.902,0 -1.637,-0.776 -1.637,-1.73 l 0,-30.223 c 0,-0.217 0.165,-0.392 0.369,-0.392 l 86.681,0 c 0.206,0 0.37,0.175 0.37,0.392 l 0,30.223 c 0,0.954 -0.734,1.73 -1.636,1.73"
             style="fill:#110f0d;fill-opacity:1;fill-rule:nonzero;stroke:none"
             id="path90" /></g><g
           id="g92"
           transform="translate(84.793,70.6807)"><path
             d="m 0,0 c 0.004,-5.798 -4.442,-10.501 -9.928,-10.505 -5.486,-0.004 -9.935,4.694 -9.938,10.492 l 0,0.013 c -0.004,5.8 4.44,10.505 9.927,10.507 C -4.453,10.511 -0.003,5.813 0,0.015 L 0,0 z"
             style="fill:#ffffff;fill-opacity:1;fill-rule:nonzero;stroke:none"
             id="path94" /></g><g
           id="g96"
           transform="translate(79.7734,71.8535)"><path
             d="m 0,0 c -0.285,0.655 -0.703,0.984 -1.252,0.984 -1.025,0 -1.539,-0.715 -1.539,-2.144 0,-1.429 0.514,-2.144 1.539,-2.144 0.665,0 1.129,0.349 1.395,1.046 l 1.423,-0.783 c -0.662,-1.245 -1.657,-1.87 -2.981,-1.87 -1.023,0 -1.841,0.333 -2.456,0.995 -0.615,0.663 -0.924,1.579 -0.924,2.743 0,1.148 0.313,2.056 0.939,2.733 0.624,0.67 1.418,1.007 2.383,1.007 1.402,0 2.405,-0.585 3.01,-1.751 L 0,0 z m -6.549,0 c -0.284,0.655 -0.71,0.984 -1.279,0.984 -1.004,0 -1.505,-0.715 -1.505,-2.144 0,-1.429 0.501,-2.144 1.505,-2.144 0.664,0 1.137,0.349 1.422,1.046 l 1.392,-0.783 c -0.664,-1.245 -1.66,-1.87 -2.988,-1.87 -1.021,0 -1.842,0.333 -2.457,0.995 -0.617,0.663 -0.926,1.579 -0.926,2.743 0,1.148 0.319,2.056 0.953,2.733 0.635,0.67 1.426,1.007 2.375,1.007 1.404,0 2.409,-0.585 3.016,-1.751 L -6.549,0 z m -4.9,5.813 c -1.863,-1.988 -2.794,-4.316 -2.794,-6.988 0,-2.67 0.923,-4.979 2.764,-6.929 1.844,-1.947 4.038,-2.921 6.584,-2.921 2.546,0 4.76,0.984 6.64,2.953 1.786,1.826 2.68,4.128 2.68,6.897 0,2.751 -0.907,5.086 -2.724,7.004 -1.814,1.918 -4.013,2.876 -6.596,2.876 -2.583,0 -4.769,-0.962 -6.554,-2.892 M 3.16,7.381 c 2.204,-2.331 3.305,-5.18 3.305,-8.554 0,-3.374 -1.082,-6.191 -3.246,-8.462 -2.299,-2.388 -5.014,-3.582 -8.148,-3.582 -3.094,0 -5.762,1.184 -8.003,3.553 -2.24,2.368 -3.361,5.198 -3.361,8.491 0,3.295 1.121,6.144 3.361,8.554 2.182,2.328 4.852,3.492 8.003,3.492 3.191,0 5.888,-1.164 8.089,-3.492"
             style="fill:#110f0d;fill-opacity:1;fill-rule:nonzero;stroke:none"
             id="path98" /></g><g
           id="g100"
           transform="translate(94.6045,56.2881)"><path
             d="M 0,0 C 0.104,0 0.204,0.008 0.298,0.031 0.393,0.054 0.476,0.089 0.548,0.14 0.62,0.188 0.679,0.256 0.722,0.344 0.765,0.427 0.786,0.537 0.786,0.67 0.786,0.933 0.716,1.12 0.575,1.23 0.436,1.341 0.251,1.397 0.021,1.397 l -1.159,0 L -1.138,0 0,0 z m -0.061,2.163 c 0.189,0 0.344,0.048 0.467,0.145 0.12,0.093 0.183,0.247 0.183,0.462 0,0.119 -0.022,0.216 -0.063,0.292 C 0.485,3.138 0.433,3.196 0.365,3.24 0.296,3.282 0.218,3.313 0.131,3.328 0.043,3.345 -0.048,3.353 -0.144,3.353 l -0.994,0 0,-1.19 1.077,0 z m 0.136,2.063 c 0.228,0 0.44,-0.019 0.629,-0.065 C 0.893,4.119 1.056,4.051 1.19,3.95 1.327,3.854 1.431,3.724 1.506,3.563 1.579,3.4 1.617,3.2 1.617,2.961 1.617,2.705 1.563,2.492 1.451,2.319 1.341,2.148 1.177,2.01 0.961,1.899 1.259,1.808 1.481,1.651 1.628,1.424 1.776,1.199 1.849,0.925 1.849,0.605 1.849,0.348 1.802,0.125 1.707,-0.063 1.612,-0.25 1.484,-0.404 1.325,-0.521 1.165,-0.642 0.98,-0.729 0.776,-0.787 0.569,-0.844 0.359,-0.873 0.142,-0.873 l -2.343,0 0,5.099 2.276,0 z"
             style="fill:#ffffff;fill-opacity:1;fill-rule:nonzero;stroke:none"
             id="path102" /></g><g
           id="g104"
           transform="translate(96.6416,60.5137)"><path
             d="M 0,0 1.188,0 2.319,-2.015 3.441,0 4.626,0 2.833,-3.141 l 0,-1.958 -1.062,0 0,1.985 L 0,0 z"
             style="fill:#ffffff;fill-opacity:1;fill-rule:nonzero;stroke:none"
             id="path106" /></g><g
           id="g108"
           transform="translate(112.4727,60.5137)"><path
             d="m 0,0 2.015,-3.42 0.01,0 0,3.42 0.996,0 0,-5.099 -1.06,0 -2.008,3.413 -0.015,0 0,-3.413 -0.995,0 0,5.099 L 0,0 z"
             style="fill:#ffffff;fill-opacity:1;fill-rule:nonzero;stroke:none"
             id="path110" /></g><g
           id="g112"
           transform="translate(119.5215,59.1533)"><path
             d="m 0,0 c -0.063,0.11 -0.142,0.204 -0.236,0.285 -0.094,0.081 -0.201,0.144 -0.323,0.19 -0.118,0.044 -0.243,0.067 -0.373,0.067 -0.24,0 -0.442,-0.048 -0.609,-0.146 -0.168,-0.098 -0.301,-0.227 -0.405,-0.394 -0.105,-0.164 -0.179,-0.352 -0.228,-0.56 -0.047,-0.209 -0.069,-0.424 -0.069,-0.65 0,-0.214 0.022,-0.423 0.069,-0.622 0.049,-0.204 0.123,-0.386 0.228,-0.546 0.104,-0.165 0.237,-0.292 0.405,-0.392 0.167,-0.095 0.369,-0.145 0.609,-0.145 0.324,0 0.577,0.103 0.76,0.314 0.183,0.21 0.294,0.486 0.334,0.828 l 1.026,0 C 1.162,-2.091 1.093,-2.378 0.98,-2.635 0.868,-2.895 0.719,-3.111 0.533,-3.293 0.35,-3.476 0.133,-3.611 -0.115,-3.709 c -0.247,-0.096 -0.521,-0.144 -0.817,-0.144 -0.371,0 -0.703,0.069 -0.998,0.205 -0.295,0.137 -0.545,0.322 -0.748,0.559 -0.203,0.24 -0.357,0.522 -0.467,0.84 -0.107,0.322 -0.164,0.671 -0.164,1.041 0,0.381 0.057,0.735 0.164,1.061 0.11,0.327 0.264,0.612 0.467,0.855 0.203,0.244 0.453,0.434 0.748,0.571 0.295,0.139 0.627,0.208 0.998,0.208 0.265,0 0.517,-0.042 0.754,-0.123 C 0.058,1.283 0.27,1.166 0.455,1.01 0.644,0.856 0.797,0.662 0.92,0.436 1.042,0.206 1.117,-0.056 1.148,-0.35 l -1.026,0 C 0.105,-0.225 0.063,-0.104 0,0"
             style="fill:#ffffff;fill-opacity:1;fill-rule:nonzero;stroke:none"
             id="path114" /></g><g
           id="g116"
           transform="translate(131.2949,60.5137)"><path
             d="m 0,0 2.016,-3.42 0.011,0 0,3.42 0.994,0 0,-5.099 -1.06,0 -2.008,3.413 -0.013,0 0,-3.413 -0.996,0 0,5.099 L 0,0 z"
             style="fill:#ffffff;fill-opacity:1;fill-rule:nonzero;stroke:none"
             id="path118" /></g><g
           id="g120"
           transform="translate(137.2559,56.3584)"><path
             d="M 0,0 C 0.154,0 0.302,0.025 0.446,0.077 0.59,0.132 0.72,0.219 0.832,0.34 0.943,0.46 1.035,0.619 1.102,0.814 1.17,1.01 1.204,1.245 1.204,1.526 1.204,1.785 1.18,2.017 1.133,2.223 1.086,2.431 1.008,2.607 0.9,2.756 0.791,2.901 0.648,3.014 0.471,3.093 0.293,3.172 0.072,3.212 -0.188,3.212 l -0.757,0 L -0.945,0 0,0 z m 0.074,4.155 c 0.313,0 0.602,-0.05 0.869,-0.156 C 1.213,3.895 1.444,3.736 1.642,3.528 1.836,3.317 1.99,3.056 2.1,2.741 2.212,2.427 2.267,2.058 2.267,1.635 2.267,1.263 2.221,0.921 2.133,0.606 2.041,0.294 1.904,0.021 1.723,-0.208 1.54,-0.436 1.312,-0.616 1.039,-0.747 0.767,-0.879 0.445,-0.943 0.074,-0.943 l -2.083,0 0,5.098 2.083,0 z"
             style="fill:#ffffff;fill-opacity:1;fill-rule:nonzero;stroke:none"
             id="path122" /></g><g
           id="g124"
           transform="translate(123.6055,74.1963)"><path
             d="m 0,0 c 0.004,-4.236 -3.242,-7.673 -7.25,-7.675 -4.007,-0.004 -7.259,3.426 -7.262,7.662 l 0,0.013 c -0.003,4.236 3.245,7.672 7.252,7.677 4.008,0 7.257,-3.429 7.26,-7.666 L 0,0 z"
             style="fill:#ffffff;fill-opacity:1;fill-rule:nonzero;stroke:none"
             id="path126" /></g><g
           id="g128"
           transform="translate(116.3613,81.5186)"><path
             d="m 0,0 c -1.918,0 -3.539,-0.714 -4.865,-2.143 -0.361,-0.385 -0.675,-0.785 -0.94,-1.206 l 3.229,-1.52 c 0.291,0.947 1.142,1.52 2.176,1.585 l 0,1.379 0.971,0 0,-1.379 C 1.239,-3.317 1.972,-3.511 2.692,-4.103 L 1.583,-5.309 c -0.409,0.307 -0.927,0.523 -1.443,0.523 -0.421,0 -1.013,-0.135 -1.013,-0.693 0,-0.084 0.027,-0.159 0.075,-0.227 l 1.08,-0.506 0.732,-0.346 C 1.482,-6.779 1.929,-6.987 2.37,-7.197 l 4.329,-2.037 c 0.143,0.599 0.215,1.237 0.215,1.912 0,2.039 -0.678,3.765 -2.03,5.179 C 3.545,-0.714 1.917,0 0,0 m -6.559,-4.923 c -0.252,-0.754 -0.379,-1.554 -0.379,-2.399 0,-1.979 0.685,-3.691 2.053,-5.136 1.366,-1.439 2.995,-2.162 4.885,-2.162 1.888,0 3.531,0.729 4.926,2.184 0.467,0.48 0.853,1 1.154,1.565 L 2.896,-9.372 C 2.68,-10.507 1.725,-11.271 0.571,-11.36 l 0,-1.377 -0.971,0 0,1.377 c -0.947,0.009 -1.862,0.421 -2.563,1.07 l 1.164,1.239 c 0.559,-0.556 1.119,-0.808 1.886,-0.808 0.494,0 1.043,0.206 1.043,0.889 0,0.241 -0.087,0.41 -0.228,0.535 l -0.804,0.377 -1.003,0.475 c -0.496,0.233 -0.917,0.43 -1.339,0.629 l -4.315,2.031 z m 6.537,6.53 c 2.37,0 4.37,-0.864 6.006,-2.587 1.635,-1.727 2.453,-3.843 2.453,-6.342 0,-2.499 -0.804,-4.59 -2.412,-6.274 -1.705,-1.769 -3.722,-2.655 -6.047,-2.655 -2.296,0 -4.279,0.877 -5.943,2.635 -1.662,1.754 -2.494,3.852 -2.494,6.294 0,2.442 0.832,4.554 2.494,6.342 1.621,1.723 3.604,2.587 5.943,2.587"
             style="fill:#110f0d;fill-opacity:1;fill-rule:nonzero;stroke:none"
             id="path130" /></g><g
           id="g132"
           transform="translate(143.1787,74.1963)"><path
             d="m 0,0 c 0.004,-4.501 -3.446,-8.153 -7.704,-8.155 -4.26,-0.005 -7.715,3.642 -7.719,8.142 l 0,0.013 c -0.002,4.5 3.447,8.153 7.706,8.157 C -3.457,8.162 -0.003,4.513 0,0.013 L 0,0 z"
             style="fill:#ffffff;fill-opacity:1;fill-rule:nonzero;stroke:none"
             id="path134" /></g><g
           id="g136"
           transform="translate(135.3672,81.5205)"><path
             d="m 0,0 c 1.918,0 3.547,-0.716 4.887,-2.145 1.351,-1.414 2.029,-3.138 2.029,-5.179 0,-2.054 -0.662,-3.757 -1.987,-5.114 -1.397,-1.455 -3.04,-2.184 -4.929,-2.184 -1.889,0 -3.518,0.723 -4.885,2.164 -1.367,1.443 -2.051,3.155 -2.051,5.134 0,1.98 0.692,3.707 2.073,5.179 C -3.537,-0.716 -1.917,0 0,0 m -0.02,1.605 c -2.339,0 -4.321,-0.861 -5.941,-2.587 -1.664,-1.788 -2.496,-3.9 -2.496,-6.342 0,-2.442 0.832,-4.538 2.496,-6.294 1.662,-1.758 3.643,-2.635 5.941,-2.635 2.327,0 4.342,0.886 6.048,2.655 1.607,1.684 2.411,3.775 2.411,6.274 0,2.501 -0.818,4.615 -2.454,6.342 C 4.35,0.744 2.348,1.605 -0.02,1.605"
             style="fill:#110f0d;fill-opacity:1;fill-rule:nonzero;stroke:none"
             id="path138" /></g><path
           d="m 138.549,73.444 -6.141,0 0,-1.537 6.141,0 0,1.537 z m 0,2.869 -6.141,0 0,-1.535 6.141,0 0,1.535 z"
           style="fill:#110f0d;fill-opacity:1;fill-rule:nonzero;stroke:none"
           id="path140" /><g
           id="g142"
           transform="translate(97.3516,82.2832)"><path
             d="m 0,0 c 4.322,0 7.824,-3.701 7.824,-8.269 0,-4.566 -3.502,-8.269 -7.824,-8.269 -4.319,0 -7.822,3.703 -7.822,8.269 C -7.822,-3.701 -4.319,0 0,0"
             style="fill:#ffffff;fill-opacity:1;fill-rule:nonzero;stroke:none"
             id="path144" /></g><g
           id="g146"
           transform="translate(99.6172,76.4102)"><path
             d="m 0,0 c 0,0.318 -0.246,0.572 -0.546,0.572 l -3.456,0 C -4.303,0.572 -4.547,0.318 -4.547,0 l 0,-3.655 0.963,0 0,-4.325 2.619,0 0,4.325 0.965,0 L 0,0 z"
             style="fill:#110f0d;fill-opacity:1;fill-rule:nonzero;stroke:none"
             id="path148" /></g><g
           id="g150"
           transform="translate(97.3438,79.9629)"><path
             d="m 0,0 c 0.652,0 1.182,-0.558 1.182,-1.247 0,-0.691 -0.53,-1.252 -1.182,-1.252 -0.652,0 -1.182,0.561 -1.182,1.252 C -1.182,-0.558 -0.652,0 0,0"
             style="fill:#110f0d;fill-opacity:1;fill-rule:nonzero;stroke:none"
             id="path152" /></g><g
           id="g154"
           transform="translate(97.3535,81.5186)"><path
             d="m 0,0 c 1.919,0 3.546,-0.714 4.885,-2.143 1.354,-1.412 2.03,-3.138 2.03,-5.177 0,-2.054 -0.661,-3.759 -1.987,-5.116 C 3.533,-13.891 1.889,-14.62 0,-14.62 c -1.889,0 -3.518,0.723 -4.885,2.164 -1.367,1.443 -2.051,3.155 -2.051,5.136 0,1.978 0.692,3.705 2.073,5.177 C -3.538,-0.714 -1.917,0 0,0 m -0.021,1.607 c -2.34,0 -4.321,-0.861 -5.942,-2.587 -1.664,-1.788 -2.494,-3.9 -2.494,-6.34 0,-2.444 0.83,-4.54 2.494,-6.296 1.664,-1.758 3.645,-2.632 5.942,-2.632 2.327,0 4.343,0.883 6.048,2.655 1.608,1.681 2.411,3.772 2.411,6.273 0,2.499 -0.817,4.613 -2.452,6.34 C 4.35,0.746 2.348,1.607 -0.021,1.607"
             style="fill:#110f0d;fill-opacity:1;fill-rule:nonzero;stroke:none"
             id="path156" /></g><path
           d="m 330.175,137.246 222.977,0 0,-55.822 -222.977,0 0,55.822 z"
           style="fill:#110f0d;fill-opacity:1;fill-rule:nonzero;stroke:none"
           id="path158" /><g
           id="g160"
           transform="translate(440.0557,81.3809)"><path
             d="m 0,0 0,-2.237 c -2.281,1.341 -4.243,2.011 -5.885,2.011 -1.58,0 -2.899,-0.48 -3.958,-1.438 -1.06,-0.959 -1.59,-2.148 -1.59,-3.565 0,-1.014 0.314,-1.93 0.941,-2.745 0.627,-0.815 1.936,-1.597 3.93,-2.351 1.994,-0.751 3.447,-1.377 4.363,-1.879 0.914,-0.502 1.691,-1.228 2.331,-2.182 0.639,-0.953 0.96,-2.186 0.96,-3.705 0,-2.018 -0.741,-3.722 -2.22,-5.113 -1.479,-1.393 -3.284,-2.087 -5.416,-2.087 -2.181,0 -4.425,0.764 -6.731,2.293 l 0,2.388 c 2.545,-1.868 4.75,-2.801 6.62,-2.801 1.551,0 2.866,0.505 3.937,1.513 1.073,1.009 1.608,2.248 1.608,3.714 0,1.117 -0.332,2.122 -0.996,3.019 -0.665,0.895 -2.011,1.734 -4.04,2.513 -2.031,0.78 -3.482,1.408 -4.354,1.883 -0.872,0.476 -1.612,1.157 -2.22,2.04 -0.608,0.883 -0.913,2.021 -0.913,3.411 0,1.928 0.739,3.574 2.219,4.932 1.479,1.36 3.259,2.04 5.341,2.04 C -4.03,1.654 -2.005,1.103 0,0"
             style="fill:#ffffff;fill-opacity:1;fill-rule:nonzero;stroke:none"
             id="path162" /></g><g
           id="g164"
           transform="translate(453.1631,57.8945)"><path
             d="m 0,0 c 1.942,0 3.565,0.68 4.87,2.04 1.303,1.36 1.955,3.068 1.955,5.124 0,2.043 -0.655,3.754 -1.965,5.134 -1.31,1.379 -2.93,2.069 -4.861,2.069 -1.955,0 -3.588,-0.684 -4.897,-2.051 C -6.209,10.95 -6.864,9.233 -6.864,7.164 -6.864,5.108 -6.209,3.401 -4.898,2.04 -3.589,0.68 -1.956,0 0,0 m 0,16.171 c 2.507,0 4.597,-0.858 6.271,-2.576 C 7.944,11.877 8.78,9.733 8.78,7.164 8.78,4.607 7.943,2.473 6.271,0.761 4.597,-0.95 2.507,-1.805 0,-1.805 c -2.508,0 -4.604,0.855 -6.291,2.566 -1.686,1.712 -2.529,3.846 -2.529,6.403 0,2.569 0.843,4.713 2.529,6.431 1.687,1.718 3.783,2.576 6.291,2.576"
             style="fill:#ffffff;fill-opacity:1;fill-rule:nonzero;stroke:none"
             id="path166" /></g><g
           id="g168"
           transform="translate(467.8301,73.7266)"><path
             d="m 0,0 0,-3.008 0.075,0 c 1.443,2.232 3.341,3.347 5.697,3.347 1.957,0 3.517,-0.627 4.683,-1.88 1.166,-1.254 1.748,-2.991 1.748,-5.21 l 0,-10.549 -1.843,0 0,9.856 c 0,3.985 -1.567,5.978 -4.7,5.978 -2.295,0 -4.181,-1.235 -5.66,-3.704 l 0,-12.13 -1.844,0 0,17.3 L 0,0 z"
             style="fill:#ffffff;fill-opacity:1;fill-rule:nonzero;stroke:none"
             id="path170" /></g><g
           id="g172"
           transform="translate(493.9492,59.8496)"><path
             d="m 0,0 0,5.397 c -2.37,0.087 -4.335,-0.33 -5.896,-1.251 -1.56,-0.921 -2.34,-2.096 -2.34,-3.525 0,-0.803 0.325,-1.479 0.976,-2.031 0.652,-0.552 1.468,-0.826 2.446,-0.826 C -3.234,-2.237 -1.631,-1.491 0,0 m 4.738,-0.414 0,-1.541 C 3.146,-3.158 1.979,-3.76 1.241,-3.76 0.814,-3.76 0.52,-3.619 0.357,-3.338 0.193,-3.056 0.075,-2.481 0,-1.617 -1.817,-3.046 -3.624,-3.76 -5.416,-3.76 c -1.304,0 -2.406,0.425 -3.31,1.279 -0.903,0.851 -1.353,1.886 -1.353,3.102 0,1.881 0.87,3.361 2.614,4.446 1.742,1.085 4.231,1.708 7.465,1.871 l 0,2.2 c 0,2.358 -1.279,3.536 -3.836,3.536 -1.63,0 -3.392,-0.734 -5.284,-2.199 l 0,1.898 c 1.956,1.228 3.816,1.843 5.584,1.843 1.567,0 2.858,-0.386 3.874,-1.156 1.016,-0.771 1.523,-1.89 1.523,-3.357 l 0,-10.775 c 0,-0.589 0.138,-0.883 0.414,-0.883 0.351,0 1.172,0.514 2.463,1.541"
             style="fill:#ffffff;fill-opacity:1;fill-rule:nonzero;stroke:none"
             id="path174" /></g><g
           id="g176"
           transform="translate(504.6865,79.4629)"><path
             d="m 0,0 0,-5.736 4.852,0 0,-1.504 -4.852,0 0,-10.286 c 0,-1.655 0.135,-2.743 0.403,-3.262 0.27,-0.521 0.994,-0.78 2.174,-0.78 0.901,0 1.955,0.282 3.158,0.846 l 0,-1.768 c -1.215,-0.589 -2.407,-0.883 -3.573,-0.883 -1.141,0 -2.094,0.324 -2.858,0.977 -0.764,0.651 -1.147,1.555 -1.147,2.708 l 0,12.448 -4.663,0 0,1.504 4.663,0 0,4.119 L -0.583,0 0,0 z"
             style="fill:#ffffff;fill-opacity:1;fill-rule:nonzero;stroke:none"
             id="path178" /></g><g
           id="g180"
           transform="translate(526.8379,73.7266)"><path
             d="m 0,0 -12.948,-26.154 -1.889,0 6.05,12.217 L -16.079,0 -14.143,0 -7.867,-12.078 -1.888,0 0,0 z"
             style="fill:#ffffff;fill-opacity:1;fill-rule:nonzero;stroke:none"
             id="path182" /></g><g
           id="g184"
           transform="translate(530.8623,70.9814)"><path
             d="m 0,0 0,-11.79 c 1.566,-0.865 3.158,-1.297 4.775,-1.297 2.07,0 3.743,0.651 5.021,1.955 1.278,1.304 1.919,3.015 1.919,5.134 0,2.105 -0.677,3.846 -2.031,5.219 C 8.33,0.592 6.618,1.279 4.551,1.279 3.07,1.279 1.554,0.854 0,0 M 0,2.745 0,1.769 c 1.741,0.877 3.478,1.316 5.209,1.316 2.456,0 4.493,-0.847 6.111,-2.538 1.618,-1.693 2.424,-3.825 2.424,-6.395 0,-2.532 -0.833,-4.673 -2.5,-6.422 -1.668,-1.749 -3.704,-2.622 -6.111,-2.622 -1.668,0 -3.378,0.433 -5.133,1.297 l 0,-9.814 -1.843,0 0,26.154 1.843,0 z"
             style="fill:#ffffff;fill-opacity:1;fill-rule:nonzero;stroke:none"
             id="path186" /></g><g
           id="g188"
           transform="translate(549.9678,67.2031)"><path
             d="M 0,0 11.205,0 C 10.555,3.371 8.731,5.058 5.734,5.058 4.318,5.058 3.092,4.616 2.059,3.732 1.024,2.849 0.338,1.604 0,0 m 13.389,-1.486 -13.634,0 c -0.038,-0.301 -0.057,-0.603 -0.057,-0.904 0,-1.929 0.689,-3.565 2.07,-4.907 1.378,-1.341 3.007,-2.012 4.887,-2.012 2.195,0 4.337,0.857 6.432,2.576 l 0,-2.087 c -1.981,-1.53 -4.2,-2.293 -6.657,-2.293 -2.494,0 -4.557,0.864 -6.187,2.593 -1.631,1.732 -2.445,3.93 -2.445,6.601 0,2.532 0.753,4.629 2.259,6.289 1.503,1.662 3.395,2.492 5.677,2.492 2.144,0 3.955,-0.75 5.435,-2.246 1.479,-1.499 2.22,-3.533 2.22,-6.102"
             style="fill:#ffffff;fill-opacity:1;fill-rule:nonzero;stroke:none"
             id="path190" /></g><path
           d="m 388.284,78.513 26.726,0 0,-2.479 -26.726,0 0,2.479 z"
           style="fill:#3a64a2;fill-opacity:1;fill-rule:nonzero;stroke:none"
           id="path192" /><path
           d="m 388.307,73.506 26.72,0 0,-2.479 -26.72,0 0,2.479 z"
           style="fill:#3a64a2;fill-opacity:1;fill-rule:nonzero;stroke:none"
           id="path194" /><path
           d="m 388.259,58.828 26.777,0 0,-2.477 -26.777,0 0,2.477 z"
           style="fill:#ffffff;fill-opacity:1;fill-rule:nonzero;stroke:none"
           id="path196" /><path
           d="m 388.26,63.792 26.799,0 0,-2.478 -26.799,0 0,2.478 z"
           style="fill:#ffffff;fill-opacity:1;fill-rule:nonzero;stroke:none"
           id="path198" /><path
           d="m 388.273,68.576 26.779,0 0,-2.479 -26.779,0 0,2.479 z"
           style="fill:#ffffff;fill-opacity:1;fill-rule:nonzero;stroke:none"
           id="path200" /><path
           d="m 388.273,83.368 26.745,0 0,-2.411 -26.745,0 0,2.411 z"
           style="fill:#3a64a2;fill-opacity:1;fill-rule:nonzero;stroke:none"
           id="path202" /><path
           d="m 635.336,231.81 -664.631,0 0,283.444 664.631,0 0,-283.444 z"
           style="fill:#3762a8;fill-opacity:1;fill-rule:nonzero;stroke:none"
           id="path204" /></g></g><text
       xml:space="preserve"
       style="font-size:32px;font-style:normal;font-weight:normal;fill:#000000;fill-opacity:1;stroke:none;font-family:Bitstream Vera Sans"
       x="44.800011"
       y="-728.79932"
       id="text3035"
       transform="scale(1,-1)"><tspan
         sodipodi:role="line"
         id="tspan3037"
         x="44.800011"
         y="-728.79932"
         style="font-size:19.20000076px;font-style:normal;font-variant:normal;font-weight:bold;font-stretch:normal;font-family:FreeSans;-inkscape-font-specification:FreeSans Bold">Edition 3.0</tspan></text>
<text
       xml:space="preserve"
       style="font-size:32px;font-style:normal;font-weight:normal;fill:#000000;fill-opacity:1.0;stroke:none;font-family:Bitstream Vera Sans"
       x="472.00031"
       y="-727.99927"
       id="text3039"
       transform="scale(1,-1)"><tspan
         sodipodi:role="line"
         id="tspan3041"
         x="472.00031"
         y="-727.99927"
         style="font-size:19.20000076000000178px;font-style:normal;font-variant:normal;font-weight:bold;font-stretch:normal;font-family:FreeSans;-inkscape-font-specification:FreeSans Bold;fill:#000000;fill-opacity:1.0">Nexus 1.9</tspan></text>
<text
       xml:space="preserve"
       style="font-size:40px;font-style:normal;font-weight:normal;fill:#ffff00;fill-opacity:1;stroke:none;font-family:Bitstream Vera Sans"
       x="44"
       y="842"
       id="text3043"
       transform="matrix(0.8,0,0,-0.8,0,792)"><tspan
         sodipodi:role="line"
         id="tspan3045"
         x="44"
         y="842" /></text>
<text
       xml:space="preserve"
       style="font-size:32px;font-style:normal;font-weight:normal;fill:#000000;fill-opacity:1;stroke:none;font-family:Bitstream Vera Sans"
       x="30.272495"
       y="-171.88528"
       id="text3823"
       transform="scale(1,-1)"><tspan
         sodipodi:role="line"
         id="tspan3825"
         x="30.272495"
         y="-171.88528"
         style="font-size:32.79999924px;font-style:normal;font-variant:normal;font-weight:bold;font-stretch:normal;fill:#ffffff;fill-opacity:1;font-family:FreeSans;-inkscape-font-specification:FreeSans Bold">Repository Management with Nexus</tspan></text>
</g></svg>